<?xml version="1.0" standalone="no"?>
<!DOCTYPE svg PUBLIC "-//W3C//DTD SVG 20010904//EN"
 "http://www.w3.org/TR/2001/REC-SVG-20010904/DTD/svg10.dtd">
<svg version="1.0" xmlns="http://www.w3.org/2000/svg"
 width="449.000000pt" height="449.000000pt" viewBox="0 0 449.000000 449.000000"
 preserveAspectRatio="xMidYMid meet">
<metadata>
Created by potrace 1.11, written by Peter Selinger 2001-2013
</metadata>
<g transform="translate(0.000000,449.000000) scale(0.100000,-0.100000)"
fill="#000000" stroke="none">
<path d="M992 3966 c-159 -31 -324 -95 -360 -141 -10 -13 -30 -27 -45 -30 -46
-12 -67 -46 -84 -138 l-15 -86 -57 -16 c-77 -23 -237 -102 -279 -139 -77 -67
-94 -173 -68 -406 27 -227 34 -488 24 -907 -10 -420 -5 -625 18 -858 18 -181
45 -254 114 -304 71 -51 116 -56 376 -37 382 27 499 21 712 -35 174 -45 358
-125 565 -244 150 -87 191 -99 328 -99 l115 0 91 53 c111 64 367 175 528 229
299 100 539 127 985 109 286 -12 281 -16 323 253 15 91 42 305 61 475 20 171
44 387 55 480 64 548 51 822 -47 965 -45 66 -139 133 -220 156 -32 9 -60 22
-64 28 -4 6 -8 34 -8 61 0 82 -19 178 -40 205 -11 14 -24 34 -29 46 -13 28
-87 63 -231 107 -182 56 -317 72 -490 57 -284 -25 -434 -99 -677 -333 -67 -65
-147 -151 -178 -191 -48 -64 -58 -72 -83 -68 -18 2 -37 18 -57 45 -98 139
-269 361 -320 415 -79 85 -147 130 -339 223 -226 109 -296 131 -426 135 -61 2
-135 -2 -178 -10z m299 -206 c83 -25 379 -171 440 -216 54 -39 128 -130 312
-381 186 -254 173 -225 180 -383 9 -177 -35 -1206 -63 -1510 -10 -103 -52
-432 -56 -438 -1 -2 -48 35 -104 82 -193 162 -422 299 -636 382 -129 49 -193
80 -279 135 -105 66 -157 82 -290 88 l-120 6 -8 885 c-8 907 -1 1201 29 1261
16 33 68 53 215 83 149 32 292 34 380 6z m2209 -210 c36 -5 124 -28 197 -51
105 -34 133 -46 137 -63 17 -61 26 -513 24 -1183 l-3 -753 -85 0 c-98 0 -194
-16 -370 -60 -149 -37 -405 -120 -512 -166 -148 -63 -346 -216 -494 -382 -49
-54 -90 -95 -92 -91 -2 4 6 75 17 156 32 228 39 307 56 598 27 475 45 939 45
1153 l0 207 56 85 c80 121 153 208 252 298 192 175 299 231 472 252 94 11 225
11 300 0z"/>
<path d="M847 3446 c-15 -15 -19 -57 -38 -426 -11 -216 -7 -372 13 -530 12
-100 21 -120 52 -120 46 0 50 19 38 163 -16 173 -15 378 3 667 13 217 13 236
-2 248 -22 16 -48 15 -66 -2z"/>
<path d="M1101 3443 c-33 -27 -48 -194 -62 -672 l-12 -404 22 -19 c28 -22 32
-22 55 -5 17 13 19 41 27 328 12 470 27 691 50 714 13 13 11 49 -3 63 -17 17
-52 15 -77 -5z"/>
<path d="M1434 3322 c-17 -11 -36 -35 -43 -53 -7 -19 -21 -52 -31 -74 -17 -36
-19 -76 -22 -430 -3 -347 -1 -393 13 -420 25 -45 47 -61 129 -95 41 -17 123
-62 182 -101 135 -88 170 -103 227 -96 61 7 105 54 120 128 13 64 29 409 27
594 -1 121 -3 134 -28 181 -70 134 -224 282 -364 350 -76 37 -165 44 -210 16z"/>
<path d="M918 1999 c-31 -12 -45 -44 -28 -64 9 -11 32 -13 108 -9 129 8 252
-13 420 -71 189 -65 324 -135 436 -228 54 -46 81 -43 81 8 0 86 -420 298 -695
351 -99 19 -287 27 -322 13z"/>
<path d="M884 1781 c-30 -13 -37 -40 -19 -68 21 -32 41 -38 70 -23 25 14 14
17 632 -177 120 -37 171 -65 274 -149 72 -59 92 -65 109 -34 15 28 7 39 -80
110 -95 77 -181 119 -345 169 -71 21 -224 68 -340 104 -232 72 -270 81 -301
68z"/>
<path d="M3240 3377 c-97 -35 -189 -87 -236 -132 l-41 -40 -7 -155 c-4 -85
-11 -189 -16 -230 -15 -121 -12 -237 6 -271 29 -56 103 -70 150 -27 15 13 29
17 46 13 15 -4 80 8 164 31 76 20 181 42 232 50 174 24 177 30 177 359 0 324
-1 325 -182 386 -130 43 -208 47 -293 16z"/>
<path d="M3541 2471 c-25 -25 -38 -136 -60 -519 -7 -111 -14 -159 -25 -177
-23 -35 -20 -62 8 -80 19 -13 29 -14 45 -5 48 25 60 77 71 310 11 227 27 386
43 417 26 55 -38 98 -82 54z"/>
<path d="M2922 2297 c-26 -31 -44 -711 -20 -735 16 -16 53 -15 65 1 6 6 16
170 23 365 13 377 13 382 -35 382 -12 0 -27 -6 -33 -13z"/>
<path d="M3242 2288 c-5 -7 -12 -67 -16 -133 -4 -66 -14 -214 -22 -328 -17
-223 -15 -237 31 -237 42 0 48 22 67 253 21 266 23 428 6 445 -16 16 -53 15
-66 0z"/>
</g>
</svg>
